# xmcd CD database file
#
# Track frame offsets:
#	150
#	9890
#	21041
#	36623
#	49046
#	62209
#	73301
#	83943
#	97740
#	109164
#
# Disc length: 1601 seconds
#
# Revision: 0
# Processed by: cddbd v1.5.2PL0 Copyright (c) Steve Scherf et al.
# Submitted via: CDex 1.70beta2
#
DISCID=7f063f0a
DTITLE=CHoF (USA/CDN-cty-XX) - Country Hall of Fame
DYEAR=1900
DGENRE=Country
TTITLE0=Billy Bayou - Jim Reves
TTITLE1=Honkey Tonk Merry Go Round - Patsy Cline
TTITLE2=Cold, Cold Heart - Jerry Lee Lewis
TTITLE3=My Own Kind - Billy Jo Spears
TTITLE4=All the Time - Anne Murray
TTITLE5=One A Day - George Jones
TTITLE6=I Wish I Could Fall in Love Again - Jan Howard
TTITLE7=Fever - Billy Jo spears
TTITLE8=Spend Some Time With Me - Don Williams
TTITLE9=Some Birds - Anne Murray
EXTD=
EXTT0=
EXTT1=
EXTT2=
EXTT3=
EXTT4=
EXTT5=
EXTT6=
EXTT7=
EXTT8=
EXTT9=
PLAYORDER=
